<?xml version="1.0" encoding="utf-8"?>
<!-- Generator: Adobe Illustrator 18.1.1, SVG Export Plug-In . SVG Version: 6.00 Build 0)  -->
<svg version="1.1" id="Layer_1" xmlns="http://www.w3.org/2000/svg" xmlns:xlink="http://www.w3.org/1999/xlink" x="0px" y="0px"
	 viewBox="-330.2 271.8 65.8 67.5" enable-background="new -330.2 271.8 65.8 67.5" xml:space="preserve">
<g>
	<path fill="#512200" stroke="#512200" stroke-miterlimit="10" d="M-275.7,301.6c0.7,2.6,1.1,5.5,1.1,8.4c0,0.3,0,0.7,0,1l3.4,1.3
		l2.8-2.4l2.2,2.6l-4.3,3.5l-4.4-1.8c-0.5,3.9-1.7,7.6-3.4,10.7l0.6-0.8l3.3,1.9l3.2-1.9l1.8,2.9l-4.7,2.9l-5.2-3.1
		c-4.1,6.3-10.4,10.4-17.5,10.4c-7.1,0-13.4-4.1-17.5-10.4l-5.1,3l-4.7-2.9l1.8-2.9l3.2,1.9l3.3-1.9l0.2,0.3
		c-1.6-3-2.7-6.5-3.1-10.2l-4.3,1.7l-4.3-3.5l2.2-2.6l2.8,2.4l3.3-1.3c0-0.4,0-0.7,0-1.1c0-2.9,0.4-5.7,1.1-8.4l-5.6-0.2l-2.4-4.9
		l3-1.5l1.6,3.3l3.8,0.2l0.1,1.1c2.3-6.8,6.8-12.3,12.4-15c0.1-2.1,1.8-3.8,4-3.8h9.3c2.2,0,4,1.8,4,4c0,0.1,0,0.2,0,0.3
		c5.3,2.9,9.5,8.3,11.6,14.9l0.1-1.5l3.8-0.2l1.6-3.3l3,1.5l-2.4,4.9L-275.7,301.6z"/>
	<polygon fill="#512200" stroke="#512200" stroke-miterlimit="10" points="-285.6,277.3 -286.1,278.5 -286.8,278.8 -288.2,279.2 
		-289.4,279.9 -291.1,280.8 -291.1,279.9 -289.2,278.6 -287.8,278.2 -286.6,277.3 -285.9,275.9 -284.5,275.5 -284.9,276.8 	"/>
	<polygon fill="#512200" stroke="#512200" stroke-miterlimit="10" points="-304.7,279.2 -306.2,278.8 -306.8,278.5 -307.3,277.3 
		-308,276.8 -308.4,275.5 -307.1,275.9 -306.4,277.3 -305.1,278.2 -303.8,278.6 -301.9,279.9 -301.9,280.8 -303.6,279.9 	"/>
</g>
</svg>
