<?xml version="1.0" encoding="utf-8"?>
<!-- Generator: Adobe Illustrator 18.1.1, SVG Export Plug-In . SVG Version: 6.00 Build 0)  -->
<svg version="1.1" id="Layer_1" xmlns="http://www.w3.org/2000/svg" xmlns:xlink="http://www.w3.org/1999/xlink" x="0px" y="0px"
	 width="256px" height="256px" viewBox="0 0 256 256" style="enable-background:new 0 0 256 256;" xml:space="preserve">
<style type="text/css">
	.st0{fill:#512200;stroke:#512200;stroke-miterlimit:10;}
</style>
<g>
	<g>
		<path class="st0" d="M205.2,110.2c2.5,9.9,3.9,20.5,3.9,31.5c0,1.3,0,2.5-0.1,3.8l12.5,5l10.4-8.8l7.9,9.6l-15.5,13.2l-16.2-6.7
			c-1.8,14.7-6.2,28.4-12.4,40.3l2.2-3.1l12.1,7.1l11.5-7.2l6.4,10.7l-17.2,10.8l-19-11.5c-14.9,23.8-37.9,39.1-63.7,39.1
			c-25.8,0-48.8-15.2-63.6-38.9l-18.7,11.3l-17.2-10.8l6.4-10.7l11.5,7.2l12.1-7.1l0.9,1.2c-5.7-11.4-9.7-24.3-11.4-38.2l-15.7,6.5
			l-15.5-13.2l7.9-9.6l10.4,8.8l12-4.8c0-1.3-0.1-2.7-0.1-4c0-11,1.4-21.6,3.9-31.5l-20.2-0.8l-8.8-18.6l11.1-5.5l5.9,12.4l14,0.7
			l0.2,4.2c8.4-25.6,24.8-46,45.2-56.3c0.4-7.9,6.7-14.1,14.5-14.1h33.9c8.1,0,14.6,6.7,14.6,14.9c0,0.4-0.1,0.7-0.1,1.1
			c19.3,10.9,34.5,31,42.3,55.9l0.3-5.6l14-0.7l5.9-12.4l11.1,5.5l-8.8,18.6L205.2,110.2z"/>
		<polygon class="st0" points="169,19.1 167.4,23.5 165,24.6 159.8,26.1 155.5,28.8 149.4,32.3 149.4,28.8 156.2,23.8 161.2,22.2 
			165.7,19.1 168.2,13.9 173.1,12.2 171.8,17 		"/>
		<polygon class="st0" points="99.6,26.1 94.4,24.6 91.9,23.5 90.3,19.1 87.6,17 86.3,12.2 91.2,13.9 93.7,19.1 98.1,22.2 
			103.1,23.8 110,28.8 110,32.3 103.9,28.8 		"/>
	</g>
</g>
<g>
</g>
<g>
</g>
<g>
</g>
<g>
</g>
<g>
</g>
<g>
</g>
<g>
</g>
<g>
</g>
<g>
</g>
<g>
</g>
<g>
</g>
<g>
</g>
<g>
</g>
<g>
</g>
<g>
</g>
</svg>
